<svg version="1.1" xmlns="http://www.w3.org/2000/svg" xmlns:xlink="http://www.w3.org/1999/xlink" width="832.76708984375" height="509"><defs/><g><text fill="#eeeeee" stroke="none" font-family="Arial" font-size="24px" font-style="normal" font-weight="normal" text-decoration="none" x="0" y="0">UNREGISTERED</text><text fill="#eeeeee" stroke="none" font-family="Arial" font-size="24px" font-style="normal" font-weight="normal" text-decoration="none" x="0" y="30">UNREGISTERED</text><text fill="#eeeeee" stroke="none" font-family="Arial" font-size="24px" font-style="normal" font-weight="normal" text-decoration="none" x="0" y="60">UNREGISTERED</text><text fill="#eeeeee" stroke="none" font-family="Arial" font-size="24px" font-style="normal" font-weight="normal" text-decoration="none" x="0" y="90">UNREGISTERED</text><text fill="#eeeeee" stroke="none" font-family="Arial" font-size="24px" font-style="normal" font-weight="normal" text-decoration="none" x="0" y="120">UNREGISTERED</text><text fill="#eeeeee" stroke="none" font-family="Arial" font-size="24px" font-style="normal" font-weight="normal" text-decoration="none" x="0" y="150">UNREGISTERED</text><text fill="#eeeeee" stroke="none" font-family="Arial" font-size="24px" font-style="normal" font-weight="normal" text-decoration="none" x="0" y="180">UNREGISTERED</text><text fill="#eeeeee" stroke="none" font-family="Arial" font-size="24px" font-style="normal" font-weight="normal" text-decoration="none" x="0" y="210">UNREGISTERED</text><text fill="#eeeeee" stroke="none" font-family="Arial" font-size="24px" font-style="normal" font-weight="normal" text-decoration="none" x="0" y="240">UNREGISTERED</text><text fill="#eeeeee" stroke="none" font-family="Arial" font-size="24px" font-style="normal" font-weight="normal" text-decoration="none" x="0" y="270">UNREGISTERED</text><text fill="#eeeeee" stroke="none" font-family="Arial" font-size="24px" font-style="normal" font-weight="normal" text-decoration="none" x="0" y="300">UNREGISTERED</text><text fill="#eeeeee" stroke="none" font-family="Arial" font-size="24px" font-style="normal" font-weight="normal" text-decoration="none" x="0" y="330">UNREGISTERED</text><text fill="#eeeeee" stroke="none" font-family="Arial" font-size="24px" font-style="normal" font-weight="normal" text-decoration="none" x="0" y="360">UNREGISTERED</text><text fill="#eeeeee" stroke="none" font-family="Arial" font-size="24px" font-style="normal" font-weight="normal" text-decoration="none" x="0" y="390">UNREGISTERED</text><text fill="#eeeeee" stroke="none" font-family="Arial" font-size="24px" font-style="normal" font-weight="normal" text-decoration="none" x="0" y="420">UNREGISTERED</text><text fill="#eeeeee" stroke="none" font-family="Arial" font-size="24px" font-style="normal" font-weight="normal" text-decoration="none" x="0" y="450">UNREGISTERED</text><text fill="#eeeeee" stroke="none" font-family="Arial" font-size="24px" font-style="normal" font-weight="normal" text-decoration="none" x="0" y="480">UNREGISTERED</text><text fill="#eeeeee" stroke="none" font-family="Arial" font-size="24px" font-style="normal" font-weight="normal" text-decoration="none" x="200" y="0">UNREGISTERED</text><text fill="#eeeeee" stroke="none" font-family="Arial" font-size="24px" font-style="normal" font-weight="normal" text-decoration="none" x="200" y="30">UNREGISTERED</text><text fill="#eeeeee" stroke="none" font-family="Arial" font-size="24px" font-style="normal" font-weight="normal" text-decoration="none" x="200" y="60">UNREGISTERED</text><text fill="#eeeeee" stroke="none" font-family="Arial" font-size="24px" font-style="normal" font-weight="normal" text-decoration="none" x="200" y="90">UNREGISTERED</text><text fill="#eeeeee" stroke="none" font-family="Arial" font-size="24px" font-style="normal" font-weight="normal" text-decoration="none" x="200" y="120">UNREGISTERED</text><text fill="#eeeeee" stroke="none" font-family="Arial" font-size="24px" font-style="normal" font-weight="normal" text-decoration="none" x="200" y="150">UNREGISTERED</text><text fill="#eeeeee" stroke="none" font-family="Arial" font-size="24px" font-style="normal" font-weight="normal" text-decoration="none" x="200" y="180">UNREGISTERED</text><text fill="#eeeeee" stroke="none" font-family="Arial" font-size="24px" font-style="normal" font-weight="normal" text-decoration="none" x="200" y="210">UNREGISTERED</text><text fill="#eeeeee" stroke="none" font-family="Arial" font-size="24px" font-style="normal" font-weight="normal" text-decoration="none" x="200" y="240">UNREGISTERED</text><text fill="#eeeeee" stroke="none" font-family="Arial" font-size="24px" font-style="normal" font-weight="normal" text-decoration="none" x="200" y="270">UNREGISTERED</text><text fill="#eeeeee" stroke="none" font-family="Arial" font-size="24px" font-style="normal" font-weight="normal" text-decoration="none" x="200" y="300">UNREGISTERED</text><text fill="#eeeeee" stroke="none" font-family="Arial" font-size="24px" font-style="normal" font-weight="normal" text-decoration="none" x="200" y="330">UNREGISTERED</text><text fill="#eeeeee" stroke="none" font-family="Arial" font-size="24px" font-style="normal" font-weight="normal" text-decoration="none" x="200" y="360">UNREGISTERED</text><text fill="#eeeeee" stroke="none" font-family="Arial" font-size="24px" font-style="normal" font-weight="normal" text-decoration="none" x="200" y="390">UNREGISTERED</text><text fill="#eeeeee" stroke="none" font-family="Arial" font-size="24px" font-style="normal" font-weight="normal" text-decoration="none" x="200" y="420">UNREGISTERED</text><text fill="#eeeeee" stroke="none" font-family="Arial" font-size="24px" font-style="normal" font-weight="normal" text-decoration="none" x="200" y="450">UNREGISTERED</text><text fill="#eeeeee" stroke="none" font-family="Arial" font-size="24px" font-style="normal" font-weight="normal" text-decoration="none" x="200" y="480">UNREGISTERED</text><text fill="#eeeeee" stroke="none" font-family="Arial" font-size="24px" font-style="normal" font-weight="normal" text-decoration="none" x="400" y="0">UNREGISTERED</text><text fill="#eeeeee" stroke="none" font-family="Arial" font-size="24px" font-style="normal" font-weight="normal" text-decoration="none" x="400" y="30">UNREGISTERED</text><text fill="#eeeeee" stroke="none" font-family="Arial" font-size="24px" font-style="normal" font-weight="normal" text-decoration="none" x="400" y="60">UNREGISTERED</text><text fill="#eeeeee" stroke="none" font-family="Arial" font-size="24px" font-style="normal" font-weight="normal" text-decoration="none" x="400" y="90">UNREGISTERED</text><text fill="#eeeeee" stroke="none" font-family="Arial" font-size="24px" font-style="normal" font-weight="normal" text-decoration="none" x="400" y="120">UNREGISTERED</text><text fill="#eeeeee" stroke="none" font-family="Arial" font-size="24px" font-style="normal" font-weight="normal" text-decoration="none" x="400" y="150">UNREGISTERED</text><text fill="#eeeeee" stroke="none" font-family="Arial" font-size="24px" font-style="normal" font-weight="normal" text-decoration="none" x="400" y="180">UNREGISTERED</text><text fill="#eeeeee" stroke="none" font-family="Arial" font-size="24px" font-style="normal" font-weight="normal" text-decoration="none" x="400" y="210">UNREGISTERED</text><text fill="#eeeeee" stroke="none" font-family="Arial" font-size="24px" font-style="normal" font-weight="normal" text-decoration="none" x="400" y="240">UNREGISTERED</text><text fill="#eeeeee" stroke="none" font-family="Arial" font-size="24px" font-style="normal" font-weight="normal" text-decoration="none" x="400" y="270">UNREGISTERED</text><text fill="#eeeeee" stroke="none" font-family="Arial" font-size="24px" font-style="normal" font-weight="normal" text-decoration="none" x="400" y="300">UNREGISTERED</text><text fill="#eeeeee" stroke="none" font-family="Arial" font-size="24px" font-style="normal" font-weight="normal" text-decoration="none" x="400" y="330">UNREGISTERED</text><text fill="#eeeeee" stroke="none" font-family="Arial" font-size="24px" font-style="normal" font-weight="normal" text-decoration="none" x="400" y="360">UNREGISTERED</text><text fill="#eeeeee" stroke="none" font-family="Arial" font-size="24px" font-style="normal" font-weight="normal" text-decoration="none" x="400" y="390">UNREGISTERED</text><text fill="#eeeeee" stroke="none" font-family="Arial" font-size="24px" font-style="normal" font-weight="normal" text-decoration="none" x="400" y="420">UNREGISTERED</text><text fill="#eeeeee" stroke="none" font-family="Arial" font-size="24px" font-style="normal" font-weight="normal" text-decoration="none" x="400" y="450">UNREGISTERED</text><text fill="#eeeeee" stroke="none" font-family="Arial" font-size="24px" font-style="normal" font-weight="normal" text-decoration="none" x="400" y="480">UNREGISTERED</text><text fill="#eeeeee" stroke="none" font-family="Arial" font-size="24px" font-style="normal" font-weight="normal" text-decoration="none" x="600" y="0">UNREGISTERED</text><text fill="#eeeeee" stroke="none" font-family="Arial" font-size="24px" font-style="normal" font-weight="normal" text-decoration="none" x="600" y="30">UNREGISTERED</text><text fill="#eeeeee" stroke="none" font-family="Arial" font-size="24px" font-style="normal" font-weight="normal" text-decoration="none" x="600" y="60">UNREGISTERED</text><text fill="#eeeeee" stroke="none" font-family="Arial" font-size="24px" font-style="normal" font-weight="normal" text-decoration="none" x="600" y="90">UNREGISTERED</text><text fill="#eeeeee" stroke="none" font-family="Arial" font-size="24px" font-style="normal" font-weight="normal" text-decoration="none" x="600" y="120">UNREGISTERED</text><text fill="#eeeeee" stroke="none" font-family="Arial" font-size="24px" font-style="normal" font-weight="normal" text-decoration="none" x="600" y="150">UNREGISTERED</text><text fill="#eeeeee" stroke="none" font-family="Arial" font-size="24px" font-style="normal" font-weight="normal" text-decoration="none" x="600" y="180">UNREGISTERED</text><text fill="#eeeeee" stroke="none" font-family="Arial" font-size="24px" font-style="normal" font-weight="normal" text-decoration="none" x="600" y="210">UNREGISTERED</text><text fill="#eeeeee" stroke="none" font-family="Arial" font-size="24px" font-style="normal" font-weight="normal" text-decoration="none" x="600" y="240">UNREGISTERED</text><text fill="#eeeeee" stroke="none" font-family="Arial" font-size="24px" font-style="normal" font-weight="normal" text-decoration="none" x="600" y="270">UNREGISTERED</text><text fill="#eeeeee" stroke="none" font-family="Arial" font-size="24px" font-style="normal" font-weight="normal" text-decoration="none" x="600" y="300">UNREGISTERED</text><text fill="#eeeeee" stroke="none" font-family="Arial" font-size="24px" font-style="normal" font-weight="normal" text-decoration="none" x="600" y="330">UNREGISTERED</text><text fill="#eeeeee" stroke="none" font-family="Arial" font-size="24px" font-style="normal" font-weight="normal" text-decoration="none" x="600" y="360">UNREGISTERED</text><text fill="#eeeeee" stroke="none" font-family="Arial" font-size="24px" font-style="normal" font-weight="normal" text-decoration="none" x="600" y="390">UNREGISTERED</text><text fill="#eeeeee" stroke="none" font-family="Arial" font-size="24px" font-style="normal" font-weight="normal" text-decoration="none" x="600" y="420">UNREGISTERED</text><text fill="#eeeeee" stroke="none" font-family="Arial" font-size="24px" font-style="normal" font-weight="normal" text-decoration="none" x="600" y="450">UNREGISTERED</text><text fill="#eeeeee" stroke="none" font-family="Arial" font-size="24px" font-style="normal" font-weight="normal" text-decoration="none" x="600" y="480">UNREGISTERED</text><text fill="#eeeeee" stroke="none" font-family="Arial" font-size="24px" font-style="normal" font-weight="normal" text-decoration="none" x="800" y="0">UNREGISTERED</text><text fill="#eeeeee" stroke="none" font-family="Arial" font-size="24px" font-style="normal" font-weight="normal" text-decoration="none" x="800" y="30">UNREGISTERED</text><text fill="#eeeeee" stroke="none" font-family="Arial" font-size="24px" font-style="normal" font-weight="normal" text-decoration="none" x="800" y="60">UNREGISTERED</text><text fill="#eeeeee" stroke="none" font-family="Arial" font-size="24px" font-style="normal" font-weight="normal" text-decoration="none" x="800" y="90">UNREGISTERED</text><text fill="#eeeeee" stroke="none" font-family="Arial" font-size="24px" font-style="normal" font-weight="normal" text-decoration="none" x="800" y="120">UNREGISTERED</text><text fill="#eeeeee" stroke="none" font-family="Arial" font-size="24px" font-style="normal" font-weight="normal" text-decoration="none" x="800" y="150">UNREGISTERED</text><text fill="#eeeeee" stroke="none" font-family="Arial" font-size="24px" font-style="normal" font-weight="normal" text-decoration="none" x="800" y="180">UNREGISTERED</text><text fill="#eeeeee" stroke="none" font-family="Arial" font-size="24px" font-style="normal" font-weight="normal" text-decoration="none" x="800" y="210">UNREGISTERED</text><text fill="#eeeeee" stroke="none" font-family="Arial" font-size="24px" font-style="normal" font-weight="normal" text-decoration="none" x="800" y="240">UNREGISTERED</text><text fill="#eeeeee" stroke="none" font-family="Arial" font-size="24px" font-style="normal" font-weight="normal" text-decoration="none" x="800" y="270">UNREGISTERED</text><text fill="#eeeeee" stroke="none" font-family="Arial" font-size="24px" font-style="normal" font-weight="normal" text-decoration="none" x="800" y="300">UNREGISTERED</text><text fill="#eeeeee" stroke="none" font-family="Arial" font-size="24px" font-style="normal" font-weight="normal" text-decoration="none" x="800" y="330">UNREGISTERED</text><text fill="#eeeeee" stroke="none" font-family="Arial" font-size="24px" font-style="normal" font-weight="normal" text-decoration="none" x="800" y="360">UNREGISTERED</text><text fill="#eeeeee" stroke="none" font-family="Arial" font-size="24px" font-style="normal" font-weight="normal" text-decoration="none" x="800" y="390">UNREGISTERED</text><text fill="#eeeeee" stroke="none" font-family="Arial" font-size="24px" font-style="normal" font-weight="normal" text-decoration="none" x="800" y="420">UNREGISTERED</text><text fill="#eeeeee" stroke="none" font-family="Arial" font-size="24px" font-style="normal" font-weight="normal" text-decoration="none" x="800" y="450">UNREGISTERED</text><text fill="#eeeeee" stroke="none" font-family="Arial" font-size="24px" font-style="normal" font-weight="normal" text-decoration="none" x="800" y="480">UNREGISTERED</text><g transform="translate(-110,-230) scale(1,1)"><rect fill="#C0C0C0" stroke="none" x="519" y="351" width="184.3095703125" height="162" opacity="0.2"/></g><g transform="translate(-110,-230) scale(1,1)"><rect fill="#ffffff" stroke="none" x="512" y="344" width="184.3095703125" height="162"/></g><g transform="translate(-110,-230) scale(1,1)"><path fill="none" stroke="#000000" d="M 512 344 L 696.3095703125 344 L 696.3095703125 506 L 512 506 L 512 344 Z Z" stroke-miterlimit="10"/></g><g transform="translate(-110,-230) scale(1,1)"><path fill="none" stroke="#000000" d="M 512 369 L 696.3095703125 369" stroke-miterlimit="10"/></g><g transform="translate(-110,-230) scale(1,1)"><path fill="none" stroke="#000000" d="M 512 497 L 696.3095703125 497" stroke-miterlimit="10"/></g><g transform="translate(-110,-230) scale(1,1)"><g><path fill="none" stroke="none"/><text fill="#000000" stroke="none" font-family="Arial" font-size="13px" font-style="normal" font-weight="bold" text-decoration="none" x="590.43115234375" y="363.5">User</text></g></g><g transform="translate(-110,-230) scale(1,1)"><g><path fill="none" stroke="none"/><text fill="#000000" stroke="none" font-family="Arial" font-size="13px" font-style="normal" font-weight="normal" text-decoration="none" x="517" y="386.5">+id {id, unique}</text></g></g><g transform="translate(-110,-230) scale(1,1)"><g><path fill="none" stroke="none"/><text fill="#000000" stroke="none" font-family="Arial" font-size="13px" font-style="normal" font-weight="normal" text-decoration="none" x="517" y="401.5">+username: text {unique}</text></g></g><g transform="translate(-110,-230) scale(1,1)"><g><path fill="none" stroke="none"/><text fill="#000000" stroke="none" font-family="Arial" font-size="13px" font-style="normal" font-weight="normal" text-decoration="none" x="517" y="416.5">+email: text {unique}</text></g></g><g transform="translate(-110,-230) scale(1,1)"><g><path fill="none" stroke="none"/><text fill="#000000" stroke="none" font-family="Arial" font-size="13px" font-style="normal" font-weight="normal" text-decoration="none" x="517" y="431.5">+xp: int</text></g></g><g transform="translate(-110,-230) scale(1,1)"><g><path fill="none" stroke="none"/><text fill="#000000" stroke="none" font-family="Arial" font-size="13px" font-style="normal" font-weight="normal" text-decoration="none" x="517" y="446.5">+password: text</text></g></g><g transform="translate(-110,-230) scale(1,1)"><g><path fill="none" stroke="none"/><text fill="#000000" stroke="none" font-family="Arial" font-size="13px" font-style="normal" font-weight="normal" text-decoration="none" x="517" y="461.5">+rights: int</text></g></g><g transform="translate(-110,-230) scale(1,1)"><g><path fill="none" stroke="none"/><text fill="#000000" stroke="none" font-family="Arial" font-size="13px" font-style="normal" font-weight="normal" text-decoration="none" x="517" y="476.5">+port: int</text></g></g><g transform="translate(-110,-230) scale(1,1)"><g><path fill="none" stroke="none"/><text fill="#000000" stroke="none" font-family="Arial" font-size="13px" font-style="normal" font-weight="normal" text-decoration="none" x="517" y="491.5">+created_at: timestamp</text></g></g><g transform="translate(-110,-230) scale(1,1)"><rect fill="#C0C0C0" stroke="none" x="279" y="399" width="146.97900390625" height="87" opacity="0.2"/></g><g transform="translate(-110,-230) scale(1,1)"><rect fill="#ffffff" stroke="none" x="272" y="392" width="146.97900390625" height="87"/></g><g transform="translate(-110,-230) scale(1,1)"><path fill="none" stroke="#000000" d="M 272 392 L 418.97900390625 392 L 418.97900390625 479 L 272 479 L 272 392 Z Z" stroke-miterlimit="10"/></g><g transform="translate(-110,-230) scale(1,1)"><path fill="none" stroke="#000000" d="M 272 417 L 418.97900390625 417" stroke-miterlimit="10"/></g><g transform="translate(-110,-230) scale(1,1)"><path fill="none" stroke="#000000" d="M 272 470 L 418.97900390625 470" stroke-miterlimit="10"/></g><g transform="translate(-110,-230) scale(1,1)"><g><path fill="none" stroke="none"/><text fill="#000000" stroke="none" font-family="Arial" font-size="13px" font-style="normal" font-weight="bold" text-decoration="none" x="302.50634765625" y="411.5">userCosmetics</text></g></g><g transform="translate(-110,-230) scale(1,1)"><g><path fill="none" stroke="none"/><text fill="#000000" stroke="none" font-family="Arial" font-size="13px" font-style="normal" font-weight="normal" text-decoration="none" x="277" y="434.5">+/id: int {id, unique}</text></g></g><g transform="translate(-110,-230) scale(1,1)"><g><path fill="none" stroke="none"/><text fill="#000000" stroke="none" font-family="Arial" font-size="13px" font-style="normal" font-weight="normal" text-decoration="none" x="277" y="449.5">+/IDimage: int</text></g></g><g transform="translate(-110,-230) scale(1,1)"><g><path fill="none" stroke="none"/><text fill="#000000" stroke="none" font-family="Arial" font-size="13px" font-style="normal" font-weight="normal" text-decoration="none" x="277" y="464.5">+/IDtitle: int</text></g></g><g transform="translate(-110,-230) scale(1,1)"><rect fill="#C0C0C0" stroke="none" x="127" y="247" width="185.0712890625" height="87" opacity="0.2"/></g><g transform="translate(-110,-230) scale(1,1)"><rect fill="#ffffff" stroke="none" x="120" y="240" width="185.0712890625" height="87"/></g><g transform="translate(-110,-230) scale(1,1)"><path fill="none" stroke="#000000" d="M 120 240 L 305.0712890625 240 L 305.0712890625 327 L 120 327 L 120 240 Z Z" stroke-miterlimit="10"/></g><g transform="translate(-110,-230) scale(1,1)"><path fill="none" stroke="#000000" d="M 120 265 L 305.0712890625 265" stroke-miterlimit="10"/></g><g transform="translate(-110,-230) scale(1,1)"><path fill="none" stroke="#000000" d="M 120 318 L 305.0712890625 318" stroke-miterlimit="10"/></g><g transform="translate(-110,-230) scale(1,1)"><g><path fill="none" stroke="none"/><text fill="#000000" stroke="none" font-family="Arial" font-size="13px" font-style="normal" font-weight="bold" text-decoration="none" x="194.47021484375" y="259.5">Image</text></g></g><g transform="translate(-110,-230) scale(1,1)"><g><path fill="none" stroke="none"/><text fill="#000000" stroke="none" font-family="Arial" font-size="13px" font-style="normal" font-weight="normal" text-decoration="none" x="125" y="282.5">+IDimage: int {id, unique}</text></g></g><g transform="translate(-110,-230) scale(1,1)"><g><path fill="none" stroke="none"/><text fill="#000000" stroke="none" font-family="Arial" font-size="13px" font-style="normal" font-weight="normal" text-decoration="none" x="125" y="297.5">+image: text</text></g></g><g transform="translate(-110,-230) scale(1,1)"><g><path fill="none" stroke="none"/><text fill="#000000" stroke="none" font-family="Arial" font-size="13px" font-style="normal" font-weight="normal" text-decoration="none" x="125" y="312.5">+xpNeeded: int</text></g></g><g transform="translate(-110,-230) scale(1,1)"><rect fill="#C0C0C0" stroke="none" x="383" y="247" width="169.99560546875" height="87" opacity="0.2"/></g><g transform="translate(-110,-230) scale(1,1)"><rect fill="#ffffff" stroke="none" x="376" y="240" width="169.99560546875" height="87"/></g><g transform="translate(-110,-230) scale(1,1)"><path fill="none" stroke="#000000" d="M 376 240 L 545.99560546875 240 L 545.99560546875 327 L 376 327 L 376 240 Z Z" stroke-miterlimit="10"/></g><g transform="translate(-110,-230) scale(1,1)"><path fill="none" stroke="#000000" d="M 376 265 L 545.99560546875 265" stroke-miterlimit="10"/></g><g transform="translate(-110,-230) scale(1,1)"><path fill="none" stroke="#000000" d="M 376 318 L 545.99560546875 318" stroke-miterlimit="10"/></g><g transform="translate(-110,-230) scale(1,1)"><g><path fill="none" stroke="none"/><text fill="#000000" stroke="none" font-family="Arial" font-size="13px" font-style="normal" font-weight="bold" text-decoration="none" x="448.95947265625" y="259.5">Title</text></g></g><g transform="translate(-110,-230) scale(1,1)"><g><path fill="none" stroke="none"/><text fill="#000000" stroke="none" font-family="Arial" font-size="13px" font-style="normal" font-weight="normal" text-decoration="none" x="381" y="282.5">+IDtitle: int {id, unique}</text></g></g><g transform="translate(-110,-230) scale(1,1)"><g><path fill="none" stroke="none"/><text fill="#000000" stroke="none" font-family="Arial" font-size="13px" font-style="normal" font-weight="normal" text-decoration="none" x="381" y="297.5">+title: text</text></g></g><g transform="translate(-110,-230) scale(1,1)"><g><path fill="none" stroke="none"/><text fill="#000000" stroke="none" font-family="Arial" font-size="13px" font-style="normal" font-weight="normal" text-decoration="none" x="381" y="312.5">+xpNeeded: int</text></g></g><g transform="translate(-110,-230) scale(1,1)"><rect fill="#C0C0C0" stroke="none" x="791" y="391" width="146.97900390625" height="87" opacity="0.2"/></g><g transform="translate(-110,-230) scale(1,1)"><rect fill="#ffffff" stroke="none" x="784" y="384" width="146.97900390625" height="87"/></g><g transform="translate(-110,-230) scale(1,1)"><path fill="none" stroke="#000000" d="M 784 384 L 930.97900390625 384 L 930.97900390625 471 L 784 471 L 784 384 Z Z" stroke-miterlimit="10"/></g><g transform="translate(-110,-230) scale(1,1)"><path fill="none" stroke="#000000" d="M 784 409 L 930.97900390625 409" stroke-miterlimit="10"/></g><g transform="translate(-110,-230) scale(1,1)"><path fill="none" stroke="#000000" d="M 784 462 L 930.97900390625 462" stroke-miterlimit="10"/></g><g transform="translate(-110,-230) scale(1,1)"><g><path fill="none" stroke="none"/><text fill="#000000" stroke="none" font-family="Arial" font-size="13px" font-style="normal" font-weight="bold" text-decoration="none" x="839.424072265625" y="403.5">Lector</text></g></g><g transform="translate(-110,-230) scale(1,1)"><g><path fill="none" stroke="none"/><text fill="#000000" stroke="none" font-family="Arial" font-size="13px" font-style="normal" font-weight="normal" text-decoration="none" x="789" y="426.5">+/id: int {id, unique}</text></g></g><g transform="translate(-110,-230) scale(1,1)"><g><path fill="none" stroke="none"/><text fill="#000000" stroke="none" font-family="Arial" font-size="13px" font-style="normal" font-weight="normal" text-decoration="none" x="789" y="441.5">+ip: text</text></g></g><g transform="translate(-110,-230) scale(1,1)"><g><path fill="none" stroke="none"/><text fill="#000000" stroke="none" font-family="Arial" font-size="13px" font-style="normal" font-weight="normal" text-decoration="none" x="789" y="456.5">+port: int</text></g></g><g transform="translate(-110,-230) scale(1,1)"><rect fill="#C0C0C0" stroke="none" x="335" y="591" width="142.59912109375" height="117" opacity="0.2"/></g><g transform="translate(-110,-230) scale(1,1)"><rect fill="#ffffff" stroke="none" x="328" y="584" width="142.59912109375" height="117"/></g><g transform="translate(-110,-230) scale(1,1)"><path fill="none" stroke="#000000" d="M 328 584 L 470.59912109375 584 L 470.59912109375 701 L 328 701 L 328 584 Z Z" stroke-miterlimit="10"/></g><g transform="translate(-110,-230) scale(1,1)"><path fill="none" stroke="#000000" d="M 328 609 L 470.59912109375 609" stroke-miterlimit="10"/></g><g transform="translate(-110,-230) scale(1,1)"><path fill="none" stroke="#000000" d="M 328 692 L 470.59912109375 692" stroke-miterlimit="10"/></g><g transform="translate(-110,-230) scale(1,1)"><g><path fill="none" stroke="none"/><text fill="#000000" stroke="none" font-family="Arial" font-size="13px" font-style="normal" font-weight="bold" text-decoration="none" x="378.7109375" y="603.5">Playlist</text></g></g><g transform="translate(-110,-230) scale(1,1)"><g><path fill="none" stroke="none"/><text fill="#000000" stroke="none" font-family="Arial" font-size="13px" font-style="normal" font-weight="normal" text-decoration="none" x="333" y="626.5">+id: int {id, unique}</text></g></g><g transform="translate(-110,-230) scale(1,1)"><g><path fill="none" stroke="none"/><text fill="#000000" stroke="none" font-family="Arial" font-size="13px" font-style="normal" font-weight="normal" text-decoration="none" x="333" y="641.5">+name: text</text></g></g><g transform="translate(-110,-230) scale(1,1)"><g><path fill="none" stroke="none"/><text fill="#000000" stroke="none" font-family="Arial" font-size="13px" font-style="normal" font-weight="normal" text-decoration="none" x="333" y="656.5">+/creator: int</text></g></g><g transform="translate(-110,-230) scale(1,1)"><g><path fill="none" stroke="none"/><text fill="#000000" stroke="none" font-family="Arial" font-size="13px" font-style="normal" font-weight="normal" text-decoration="none" x="333" y="671.5">+content: int[]</text></g></g><g transform="translate(-110,-230) scale(1,1)"><g><path fill="none" stroke="none"/><text fill="#000000" stroke="none" font-family="Arial" font-size="13px" font-style="normal" font-weight="normal" text-decoration="none" x="333" y="686.5">+publik: bool</text></g></g><g transform="translate(-110,-230) scale(1,1)"><rect fill="#C0C0C0" stroke="none" x="543" y="559" width="142.59912109375" height="177" opacity="0.2"/></g><g transform="translate(-110,-230) scale(1,1)"><rect fill="#ffffff" stroke="none" x="536" y="552" width="142.59912109375" height="177"/></g><g transform="translate(-110,-230) scale(1,1)"><path fill="none" stroke="#000000" d="M 536 552 L 678.59912109375 552 L 678.59912109375 729 L 536 729 L 536 552 Z Z" stroke-miterlimit="10"/></g><g transform="translate(-110,-230) scale(1,1)"><path fill="none" stroke="#000000" d="M 536 577 L 678.59912109375 577" stroke-miterlimit="10"/></g><g transform="translate(-110,-230) scale(1,1)"><path fill="none" stroke="#000000" d="M 536 720 L 678.59912109375 720" stroke-miterlimit="10"/></g><g transform="translate(-110,-230) scale(1,1)"><g><path fill="none" stroke="none"/><text fill="#000000" stroke="none" font-family="Arial" font-size="13px" font-style="normal" font-weight="bold" text-decoration="none" x="590.319580078125" y="571.5">Karas</text></g></g><g transform="translate(-110,-230) scale(1,1)"><g><path fill="none" stroke="none"/><text fill="#000000" stroke="none" font-family="Arial" font-size="13px" font-style="normal" font-weight="normal" text-decoration="none" x="541" y="594.5">+id: int {id, unique}</text></g></g><g transform="translate(-110,-230) scale(1,1)"><g><path fill="none" stroke="none"/><text fill="#000000" stroke="none" font-family="Arial" font-size="13px" font-style="normal" font-weight="normal" text-decoration="none" x="541" y="609.5">+song_name: text</text></g></g><g transform="translate(-110,-230) scale(1,1)"><g><path fill="none" stroke="none"/><text fill="#000000" stroke="none" font-family="Arial" font-size="13px" font-style="normal" font-weight="normal" text-decoration="none" x="541" y="624.5">+source_name: text</text></g></g><g transform="translate(-110,-230) scale(1,1)"><g><path fill="none" stroke="none"/><text fill="#000000" stroke="none" font-family="Arial" font-size="13px" font-style="normal" font-weight="normal" text-decoration="none" x="541" y="639.5">+category: text</text></g></g><g transform="translate(-110,-230) scale(1,1)"><g><path fill="none" stroke="none"/><text fill="#000000" stroke="none" font-family="Arial" font-size="13px" font-style="normal" font-weight="normal" text-decoration="none" x="541" y="654.5">+song_type: text</text></g></g><g transform="translate(-110,-230) scale(1,1)"><g><path fill="none" stroke="none"/><text fill="#000000" stroke="none" font-family="Arial" font-size="13px" font-style="normal" font-weight="normal" text-decoration="none" x="541" y="669.5">+song_number: int</text></g></g><g transform="translate(-110,-230) scale(1,1)"><g><path fill="none" stroke="none"/><text fill="#000000" stroke="none" font-family="Arial" font-size="13px" font-style="normal" font-weight="normal" text-decoration="none" x="541" y="684.5">+language: text</text></g></g><g transform="translate(-110,-230) scale(1,1)"><g><path fill="none" stroke="none"/><text fill="#000000" stroke="none" font-family="Arial" font-size="13px" font-style="normal" font-weight="normal" text-decoration="none" x="541" y="699.5">+author_name: text</text></g></g><g transform="translate(-110,-230) scale(1,1)"><g><path fill="none" stroke="none"/><text fill="#000000" stroke="none" font-family="Arial" font-size="13px" font-style="normal" font-weight="normal" text-decoration="none" x="541" y="714.5">+is_new: int</text></g></g><g transform="translate(-110,-230) scale(1,1)"><rect fill="#C0C0C0" stroke="none" x="783" y="615" width="156.76708984375" height="87" opacity="0.2"/></g><g transform="translate(-110,-230) scale(1,1)"><rect fill="#ffffff" stroke="none" x="776" y="608" width="156.76708984375" height="87"/></g><g transform="translate(-110,-230) scale(1,1)"><path fill="none" stroke="#000000" d="M 776 608 L 932.76708984375 608 L 932.76708984375 695 L 776 695 L 776 608 Z Z" stroke-miterlimit="10"/></g><g transform="translate(-110,-230) scale(1,1)"><path fill="none" stroke="#000000" d="M 776 633 L 932.76708984375 633" stroke-miterlimit="10"/></g><g transform="translate(-110,-230) scale(1,1)"><path fill="none" stroke="#000000" d="M 776 686 L 932.76708984375 686" stroke-miterlimit="10"/></g><g transform="translate(-110,-230) scale(1,1)"><g><path fill="none" stroke="none"/><text fill="#000000" stroke="none" font-family="Arial" font-size="13px" font-style="normal" font-weight="bold" text-decoration="none" x="834.86767578125" y="627.5">Queue</text></g></g><g transform="translate(-110,-230) scale(1,1)"><g><path fill="none" stroke="none"/><text fill="#000000" stroke="none" font-family="Arial" font-size="13px" font-style="normal" font-weight="normal" text-decoration="none" x="781" y="650.5">+position {id, unique}</text></g></g><g transform="translate(-110,-230) scale(1,1)"><g><path fill="none" stroke="none"/><text fill="#000000" stroke="none" font-family="Arial" font-size="13px" font-style="normal" font-weight="normal" text-decoration="none" x="781" y="665.5">+/id: integer</text></g></g><g transform="translate(-110,-230) scale(1,1)"><g><path fill="none" stroke="none"/><text fill="#000000" stroke="none" font-family="Arial" font-size="13px" font-style="normal" font-weight="normal" text-decoration="none" x="781" y="680.5">+/added_by: int</text></g></g><g transform="translate(-110,-230) scale(1,1)"><path fill="none" stroke="#000000" d="M 420 432 L 511 429" stroke-miterlimit="10"/></g><g transform="translate(-110,-230) scale(1,1)"><path fill="#000000" stroke="none" d="M 500.9815431306146 433.54208343783614 L 511 429 L 500.7041432110236 425.12761921024173 L 489.011945341896 429.7248809227946"/></g><g transform="translate(-110,-230) scale(1,1)"><path fill="none" stroke="#000000" d="M 500.9815431306146 433.54208343783614 L 511 429 L 500.7041432110236 425.12761921024173 L 489.011945341896 429.7248809227946 L 500.9815431306146 433.54208343783614" stroke-miterlimit="10"/></g><g transform="translate(-110,-230) scale(1,1)"><g><path fill="none" stroke="none"/><text fill="#000000" stroke="none" font-family="Arial" font-size="13px" font-style="normal" font-weight="normal" text-decoration="none" x="438.0205078125" y="449.5">1</text></g></g><g transform="translate(-110,-230) scale(1,1)"><g><path fill="none" stroke="none"/><text fill="#000000" stroke="none" font-family="Arial" font-size="13px" font-style="normal" font-weight="normal" text-decoration="none" x="485.0205078125" y="448.5">1</text></g></g><g transform="translate(-110,-230) scale(1,1)"><path fill="none" stroke="#000000" d="M 680 643 L 775 647" stroke-miterlimit="10"/></g><g transform="translate(-110,-230) scale(1,1)"><g><path fill="none" stroke="none"/><text fill="#000000" stroke="none" font-family="Arial" font-size="13px" font-style="normal" font-weight="normal" text-decoration="none" x="693.10205078125" y="636.5">+isInQueue</text></g></g><g transform="translate(-110,-230) scale(1,1)"><g><path fill="none" stroke="none"/><text fill="#000000" stroke="none" font-family="Arial" font-size="13px" font-style="normal" font-weight="normal" text-decoration="none" x="690.0615234375" y="662.5">0..1</text></g></g><g transform="translate(-110,-230) scale(1,1)"><g><path fill="none" stroke="none"/><text fill="#000000" stroke="none" font-family="Arial" font-size="13px" font-style="normal" font-weight="normal" text-decoration="none" x="749.220458984375" y="664.5">*</text></g></g><g transform="translate(-110,-230) scale(1,1)"><path fill="none" stroke="#000000" d="M 535 641 L 472 641" stroke-miterlimit="10"/></g><g transform="translate(-110,-230) scale(1,1)"><g><path fill="none" stroke="none"/><text fill="#000000" stroke="none" font-family="Arial" font-size="13px" font-style="normal" font-weight="normal" text-decoration="none" x="467.778076171875" y="662.5">+isInPlaylist</text></g></g><g transform="translate(-110,-230) scale(1,1)"><g><path fill="none" stroke="none"/><text fill="#000000" stroke="none" font-family="Arial" font-size="13px" font-style="normal" font-weight="normal" text-decoration="none" x="510.220458984375" y="634.5">*</text></g></g><g transform="translate(-110,-230) scale(1,1)"><g><path fill="none" stroke="none"/><text fill="#000000" stroke="none" font-family="Arial" font-size="13px" font-style="normal" font-weight="normal" text-decoration="none" x="490.220458984375" y="634.5">*</text></g></g><g transform="translate(-110,-230) scale(1,1)"><path fill="none" stroke="#000000" d="M 307 391 L 251 328" stroke-miterlimit="10"/></g><g transform="translate(-110,-230) scale(1,1)"><g><path fill="none" stroke="none"/><text fill="#000000" stroke="none" font-family="Arial" font-size="13px" font-style="normal" font-weight="normal" text-decoration="none" x="297.0205078125" y="372.5">1</text></g></g><g transform="translate(-110,-230) scale(1,1)"><g><path fill="none" stroke="none"/><text fill="#000000" stroke="none" font-family="Arial" font-size="13px" font-style="normal" font-weight="normal" text-decoration="none" x="271.220458984375" y="341.5">*</text></g></g><g transform="translate(-110,-230) scale(1,1)"><path fill="none" stroke="#000000" d="M 378 391 L 426 328" stroke-miterlimit="10"/></g><g transform="translate(-110,-230) scale(1,1)"><g><path fill="none" stroke="none"/><text fill="#000000" stroke="none" font-family="Arial" font-size="13px" font-style="normal" font-weight="normal" text-decoration="none" x="397.0205078125" y="387.5">1</text></g></g><g transform="translate(-110,-230) scale(1,1)"><g><path fill="none" stroke="none"/><text fill="#000000" stroke="none" font-family="Arial" font-size="13px" font-style="normal" font-weight="normal" text-decoration="none" x="419.220458984375" y="358.5">*</text></g></g><g transform="translate(-110,-230) scale(1,1)"><path fill="none" stroke="#000000" d="M 455 583 L 527 507" stroke-miterlimit="10"/></g><g transform="translate(-110,-230) scale(1,1)"><path fill="#000000" stroke="none" d="M 523.0665854711406 517.2726943955399 L 527 507 L 516.9547640452824 511.4825477815691 L 511.8696177459628 522.9709590459282"/></g><g transform="translate(-110,-230) scale(1,1)"><path fill="none" stroke="#000000" d="M 523.0665854711406 517.2726943955399 L 527 507 L 516.9547640452824 511.4825477815691 L 511.8696177459628 522.9709590459282 L 523.0665854711406 517.2726943955399" stroke-miterlimit="10"/></g><g transform="translate(-110,-230) scale(1,1)"><g><path fill="none" stroke="none"/><text fill="#000000" stroke="none" font-family="Arial" font-size="13px" font-style="normal" font-weight="normal" text-decoration="none" x="460.775390625" y="540.5">+owns</text></g></g><g transform="translate(-110,-230) scale(1,1)"><g><path fill="none" stroke="none"/><text fill="#000000" stroke="none" font-family="Arial" font-size="13px" font-style="normal" font-weight="normal" text-decoration="none" x="474.0205078125" y="581.5">1</text></g></g><g transform="translate(-110,-230) scale(1,1)"><g><path fill="none" stroke="none"/><text fill="#000000" stroke="none" font-family="Arial" font-size="13px" font-style="normal" font-weight="normal" text-decoration="none" x="518.220458984375" y="537.5">*</text></g></g><g transform="translate(-110,-230) scale(1,1)"><path fill="none" stroke="#000000" d="M 805 607 L 695 507" stroke-miterlimit="10"/></g><g transform="translate(-110,-230) scale(1,1)"><path fill="#000000" stroke="none" d="M 705.3513984503659 510.7213640136061 L 695 507 L 699.6881423097332 516.9509457683021 L 711.2786816147108 521.7988014679189"/></g><g transform="translate(-110,-230) scale(1,1)"><path fill="none" stroke="#000000" d="M 705.3513984503659 510.7213640136061 L 695 507 L 699.6881423097332 516.9509457683021 L 711.2786816147108 521.7988014679189 L 705.3513984503659 510.7213640136061" stroke-miterlimit="10"/></g><g transform="translate(-110,-230) scale(1,1)"><g><path fill="none" stroke="none"/><text fill="#000000" stroke="none" font-family="Arial" font-size="13px" font-style="normal" font-weight="normal" text-decoration="none" x="717.435546875" y="574.5">+added</text></g></g><g transform="translate(-110,-230) scale(1,1)"><g><path fill="none" stroke="none"/><text fill="#000000" stroke="none" font-family="Arial" font-size="13px" font-style="normal" font-weight="normal" text-decoration="none" x="793.0205078125" y="589.5">1</text></g></g><g transform="translate(-110,-230) scale(1,1)"><g><path fill="none" stroke="none"/><text fill="#000000" stroke="none" font-family="Arial" font-size="13px" font-style="normal" font-weight="normal" text-decoration="none" x="716.220458984375" y="518.5">*</text></g></g><g transform="translate(-110,-230) scale(1,1)"><path fill="none" stroke="#000000" d="M 783 426 L 697 426" stroke-miterlimit="10"/></g><g transform="translate(-110,-230) scale(1,1)"><path fill="#000000" stroke="none" d="M 707.1626748576241 421.790482243984 L 697 426 L 707.1626748576241 430.209517756016 L 719 426"/></g><g transform="translate(-110,-230) scale(1,1)"><path fill="none" stroke="#000000" d="M 707.1626748576241 421.790482243984 L 697 426 L 707.1626748576241 430.209517756016 L 719 426 L 707.1626748576241 421.790482243984" stroke-miterlimit="10"/></g><g transform="translate(-110,-230) scale(1,1)"><g><path fill="none" stroke="none"/><text fill="#000000" stroke="none" font-family="Arial" font-size="13px" font-style="normal" font-weight="normal" text-decoration="none" x="712.05126953125" y="447.5">+isLektor</text></g></g><g transform="translate(-110,-230) scale(1,1)"><g><path fill="none" stroke="none"/><text fill="#000000" stroke="none" font-family="Arial" font-size="13px" font-style="normal" font-weight="normal" text-decoration="none" x="757.0205078125" y="419.5">1</text></g></g><g transform="translate(-110,-230) scale(1,1)"><g><path fill="none" stroke="none"/><text fill="#000000" stroke="none" font-family="Arial" font-size="13px" font-style="normal" font-weight="normal" text-decoration="none" x="707.0615234375" y="419.5">0..1</text></g></g></g></svg>